<?xml version="1.0" standalone="no"?>
<!DOCTYPE svg PUBLIC "-//W3C//DTD SVG 20010904//EN"
 "http://www.w3.org/TR/2001/REC-SVG-20010904/DTD/svg10.dtd">
<svg version="1.0" xmlns="http://www.w3.org/2000/svg"
 width="512.000000pt" height="512.000000pt" viewBox="0 0 512.000000 512.000000"
 preserveAspectRatio="xMidYMid meet">
<metadata>
Created by potrace 1.11, written by Peter Selinger 2001-2013
</metadata>
<g transform="translate(0.000000,512.000000) scale(0.100000,-0.100000)"
fill="#000000" stroke="none">
<path d="M1760 4599 c-21 -6 -22 -7 -5 -9 l20 -1 -20 -8 c-11 -5 -23 -7 -27
-4 -5 2 -9 -5 -9 -16 -1 -12 -2 -30 -3 -42 0 -11 -9 -25 -19 -30 -9 -6 -15
-14 -12 -20 4 -5 -3 -21 -14 -35 -11 -15 -18 -30 -15 -35 3 -5 -2 -12 -10 -15
-9 -3 -16 -12 -16 -20 0 -8 -7 -14 -16 -14 -8 0 -13 -4 -9 -9 3 -5 -2 -16 -10
-24 -11 -12 -12 -17 -2 -20 7 -3 5 -6 -5 -6 -11 -1 -18 -9 -18 -22 0 -14 -5
-19 -14 -16 -7 3 -13 0 -13 -6 1 -30 -4 -47 -12 -45 -5 2 -9 0 -10 -4 -1 -5
-10 -17 -22 -29 -11 -11 -18 -27 -15 -35 3 -9 2 -12 -5 -9 -6 4 -13 -2 -16
-14 -3 -12 -13 -21 -22 -22 -12 0 -13 -2 -2 -6 10 -4 8 -9 -10 -19 -13 -7 -18
-13 -11 -14 6 0 12 -5 12 -11 0 -5 -4 -8 -8 -5 -11 7 -55 -52 -47 -63 3 -5 -4
-13 -16 -16 -12 -4 -18 -12 -15 -21 3 -8 -1 -14 -8 -14 -8 0 -16 -9 -19 -21
-4 -14 -10 -18 -19 -13 -10 6 -9 3 1 -10 12 -15 12 -17 0 -14 -9 2 -13 -4 -11
-14 3 -20 -14 -24 -21 -5 -3 6 -6 0 -6 -14 -1 -15 -8 -29 -16 -33 -8 -3 -15
-15 -15 -26 0 -11 -7 -20 -15 -20 -13 0 -20 -19 -16 -44 1 -5 -4 -4 -12 3 -12
9 -15 8 -13 -6 0 -11 -5 -17 -13 -15 -12 3 -12 0 -1 -12 10 -13 10 -16 -4 -16
-9 0 -16 -7 -16 -15 0 -8 -6 -15 -14 -15 -8 0 -13 -8 -12 -17 0 -10 -5 -17
-11 -16 -7 2 -12 0 -11 -5 3 -12 -13 -52 -20 -49 -4 2 -16 -5 -26 -16 -14 -14
-15 -19 -4 -15 8 4 15 1 15 -7 0 -7 -6 -11 -14 -8 -7 3 -13 -2 -13 -10 0 -9
-7 -20 -15 -25 -9 -4 -17 -18 -18 -30 -1 -14 -5 -18 -12 -12 -7 6 -11 2 -12
-12 -1 -11 -10 -26 -19 -32 -9 -7 -14 -18 -10 -25 5 -7 2 -10 -5 -9 -7 2 -18
-12 -24 -30 -6 -18 -14 -29 -18 -25 -4 4 -7 -7 -5 -24 1 -18 5 -31 8 -31 31 3
50 -4 44 -14 -4 -7 -4 -10 1 -6 4 4 15 2 24 -5 14 -11 14 -10 2 6 -12 15 -11
17 15 18 16 1 32 1 37 0 12 -2 8 17 -5 22 -7 3 -3 6 9 6 22 1 48 33 37 44 -3
3 3 10 14 16 11 6 23 7 27 3 3 -4 5 -2 4 3 -6 22 13 56 28 51 11 -4 13 -2 10
9 -4 8 1 18 9 23 8 5 16 18 17 31 1 21 2 21 15 4 10 -13 13 -14 12 -3 -5 33 1
50 15 50 8 0 15 6 15 14 0 8 7 16 15 20 8 3 15 15 15 26 0 11 7 20 15 20 8 0
14 3 14 8 -3 19 2 33 11 27 6 -3 10 -1 10 4 0 21 3 26 22 39 10 7 16 17 13 22
-3 5 1 13 10 17 8 5 16 18 18 30 2 13 7 26 12 30 4 5 5 3 1 -4 -3 -6 -2 -15 4
-18 6 -4 10 -3 9 2 -4 25 2 53 11 48 6 -3 13 2 17 12 3 10 12 22 20 26 7 4 13
16 13 26 0 11 7 21 15 25 8 3 15 15 15 26 0 12 9 24 23 30 12 5 16 9 8 9 -11
1 -9 7 7 21 12 12 22 27 22 35 0 8 5 15 10 15 6 0 10 5 10 10 0 6 9 19 20 30
12 12 18 25 15 30 -4 6 1 13 9 16 9 3 16 14 16 24 0 11 5 22 12 26 7 5 8 3 3
-6 -5 -9 -4 -11 3 -6 7 4 12 18 12 32 0 14 5 23 13 22 7 -2 13 9 15 25 2 15 7
25 12 22 5 -3 12 6 16 20 11 45 28 21 29 -41 0 -32 4 -64 8 -71 4 -6 3 -15 -3
-18 -8 -5 -7 -12 2 -23 11 -13 11 -14 -1 -8 -9 6 -12 5 -9 -5 3 -8 12 -13 19
-11 11 2 11 -1 -1 -10 -8 -7 -16 -21 -16 -31 -2 -13 1 -15 10 -8 9 8 13 6 13
-4 0 -8 -5 -15 -11 -15 -7 0 -7 -3 -1 -8 6 -4 11 -13 13 -21 3 -12 0 -12 -12
-1 -20 16 -21 6 -2 -13 11 -10 16 -43 18 -112 1 -53 7 -99 11 -102 5 -3 3 -9
-4 -14 -12 -7 -12 -10 0 -21 11 -11 13 -11 6 1 -5 9 -4 12 3 8 14 -9 9 -36 -9
-49 -11 -8 -11 -9 4 -4 20 6 24 -23 5 -43 -10 -11 -10 -13 0 -7 8 5 12 -4 13
-31 3 -88 6 -112 18 -127 8 -9 10 -23 6 -33 -12 -28 -14 -44 -4 -37 5 3 10
-24 10 -60 2 -105 4 -124 10 -130 3 -4 5 12 4 34 -1 22 1 38 4 34 3 -3 7 -33
8 -67 1 -34 3 -84 4 -112 1 -27 7 -53 13 -57 9 -6 12 -33 15 -146 1 -24 5 -31
14 -26 8 5 8 2 -2 -9 -7 -9 -9 -17 -3 -17 19 0 23 -32 5 -46 -12 -10 -13 -13
-4 -12 11 2 15 -11 17 -52 3 -74 2 -72 17 -65 6 4 3 -1 -7 -9 -12 -10 -15 -16
-7 -16 8 0 11 -6 7 -16 -5 -13 -3 -14 6 -6 10 8 13 -3 13 -54 0 -51 -3 -64
-15 -64 -9 0 -30 -14 -49 -30 -18 -17 -43 -31 -56 -32 -17 -2 -21 -6 -14 -14
8 -9 4 -12 -15 -10 -16 2 -26 -2 -26 -10 0 -7 -14 -15 -30 -19 -17 -4 -28 -11
-24 -16 3 -5 -4 -9 -15 -9 -11 0 -26 -7 -35 -15 -8 -8 -19 -15 -25 -15 -6 0
-11 -7 -11 -15 0 -13 -12 -17 -37 -14 -3 0 -10 -6 -15 -15 -5 -9 -16 -16 -23
-16 -8 0 -15 -7 -15 -15 0 -8 -3 -14 -7 -14 -28 5 -45 -2 -39 -17 4 -11 0 -14
-17 -12 -13 2 -21 -2 -20 -9 2 -7 -8 -15 -21 -19 -14 -3 -27 -12 -30 -20 -3
-8 -12 -11 -22 -7 -13 5 -16 2 -11 -9 4 -11 -2 -18 -19 -22 -14 -4 -22 -11
-19 -16 3 -6 -3 -10 -14 -10 -11 0 -23 -5 -27 -12 -5 -7 -3 -8 6 -3 9 5 11 4
6 -3 -4 -7 -16 -12 -27 -12 -12 0 -17 -4 -14 -11 4 -6 -2 -13 -14 -16 -12 -3
-21 -12 -21 -19 0 -8 -3 -13 -7 -13 -20 3 -34 -2 -29 -10 6 -10 -23 -26 -39
-22 -5 2 -7 -1 -3 -5 10 -10 -70 -86 -83 -79 -5 4 -9 3 -8 -2 3 -20 -2 -34
-10 -28 -6 3 -15 -4 -21 -15 -6 -11 -16 -17 -22 -14 -7 4 -8 3 -4 -5 4 -6 1
-18 -8 -26 -11 -11 -16 -12 -19 -2 -4 9 -6 8 -6 -2 -1 -8 -9 -20 -18 -27 -17
-13 -17 -14 2 -8 18 5 18 4 2 -6 -9 -6 -23 -8 -30 -4 -7 5 -6 0 3 -11 10 -13
11 -16 2 -11 -9 5 -15 1 -19 -13 -3 -12 -12 -21 -20 -21 -8 0 -12 -4 -9 -9 3
-5 -1 -11 -9 -15 -8 -3 -15 -12 -15 -21 0 -8 -6 -14 -12 -13 -7 2 -14 -7 -16
-19 -2 -13 -9 -20 -16 -17 -7 3 -13 -2 -14 -11 -1 -8 -3 -22 -4 -30 -1 -9 -7
-14 -15 -11 -8 3 -13 -2 -13 -14 0 -11 -4 -20 -9 -20 -5 0 -13 -14 -16 -31 -5
-23 -9 -28 -16 -18 -7 11 -9 9 -10 -6 -1 -11 -1 -23 0 -27 0 -5 -4 -8 -10 -8
-5 0 -7 -5 -3 -12 5 -8 2 -9 -11 -4 -15 5 -16 4 -5 -9 8 -9 8 -15 2 -15 -6 0
-9 -9 -7 -21 3 -16 0 -19 -12 -15 -14 6 -14 4 -2 -11 9 -11 10 -14 2 -9 -12 7
-18 -5 -14 -27 1 -4 -5 -18 -14 -29 -11 -17 -12 -25 -2 -37 9 -12 9 -13 0 -7
-10 6 -13 -25 -13 -139 0 -114 3 -145 13 -139 9 6 9 4 0 -7 -18 -18 -16 -34 1
-20 12 10 14 5 12 -29 -1 -22 2 -40 7 -40 4 0 5 -4 2 -10 -3 -5 1 -10 9 -10 9
0 15 -3 15 -7 -5 -30 3 -53 19 -54 10 0 12 -3 4 -6 -8 -3 -4 -11 12 -24 15
-12 23 -26 19 -34 -3 -9 1 -15 11 -15 9 0 16 -7 16 -15 0 -8 9 -15 20 -15 13
0 18 -5 14 -15 -5 -11 1 -15 21 -15 25 0 26 -2 14 -17 -8 -10 -9 -14 -2 -10 6
4 14 3 18 -2 3 -6 13 -7 22 -4 12 5 15 2 11 -9 -5 -12 0 -15 20 -15 14 0 28
-6 30 -12 2 -6 10 -11 18 -11 8 0 14 -6 14 -12 0 -10 3 -9 9 1 6 9 11 10 15 3
4 -6 13 -9 22 -5 9 3 14 0 12 -7 -2 -8 9 -13 29 -15 17 -1 39 -7 48 -15 13
-11 15 -10 9 6 -5 18 -5 18 9 1 14 -17 33 -19 209 -19 231 0 284 2 266 14 -9
5 -6 8 10 8 33 0 36 1 50 12 8 7 12 7 12 -1 0 -6 5 -11 11 -11 5 0 8 4 5 9 -7
10 16 21 44 21 10 0 21 6 23 13 4 8 6 8 6 -2 1 -12 3 -12 14 1 6 9 21 18 32
20 11 2 25 9 30 16 6 7 20 14 33 15 12 0 22 7 22 14 0 7 7 13 15 13 8 0 14 5
12 12 -2 12 3 14 41 17 13 1 14 3 3 10 -11 7 -9 10 9 16 18 6 20 9 9 16 -11 7
-10 9 4 10 9 1 23 2 30 3 6 0 13 7 13 14 1 6 2 19 3 27 0 8 8 15 16 15 9 0 15
9 15 23 0 16 3 18 9 8 10 -16 20 -3 23 32 1 14 7 25 12 24 6 -1 12 8 14 21 2
12 8 20 13 17 5 -4 9 -1 9 4 0 22 2 26 16 42 8 9 16 27 16 40 1 13 8 33 15 44
7 11 13 30 13 42 0 13 6 23 13 23 9 0 9 2 -1 9 -11 6 -10 10 3 15 15 5 15 9 4
23 -10 12 -10 14 -1 9 9 -5 12 4 13 36 1 24 1 48 0 54 -1 7 5 14 13 17 8 3 13
14 11 24 -2 10 -4 22 -4 26 -1 5 -6 5 -13 1 -7 -4 -8 -3 -4 5 4 6 12 9 17 6 5
-4 9 25 9 69 0 79 6 109 21 100 5 -3 9 2 9 11 0 8 7 18 15 21 8 4 15 13 15 21
0 8 4 12 8 9 5 -3 19 15 31 39 12 25 28 45 35 45 8 0 12 10 10 26 -2 19 1 23
10 15 9 -8 13 -7 14 4 1 8 3 22 4 30 1 9 7 14 15 11 9 -4 13 3 13 19 0 13 5
27 12 31 7 4 8 3 4 -4 -4 -7 -2 -12 3 -12 6 0 11 13 11 30 0 21 4 28 14 24 8
-3 14 1 13 8 -1 33 4 48 16 46 6 -2 11 5 9 15 -2 10 3 17 12 17 8 0 18 4 21
10 4 6 -1 7 -12 4 -17 -5 -17 -5 0 9 10 8 16 21 15 28 -2 8 3 13 10 11 11 -2
16 16 13 45 -1 6 4 15 10 19 8 5 10 3 4 -7 -6 -10 -5 -11 3 -4 10 9 18 37 21
70 1 6 6 3 11 -5 8 -13 10 -12 11 5 1 11 1 28 0 37 -2 11 3 16 11 13 13 -5 16
5 20 53 2 16 15 16 21 0 3 -7 4 3 4 22 -1 25 2 34 12 32 12 -3 12 -1 1 13 -11
14 -11 16 1 13 9 -2 15 7 17 25 2 19 8 27 16 24 10 -4 13 3 11 24 -1 17 4 36
12 44 8 8 11 15 7 15 -3 0 -2 6 5 13 6 8 9 24 6 36 -3 17 -1 20 8 12 12 -9 16
4 20 66 0 6 7 9 14 6 8 -3 13 -2 12 3 -5 30 2 74 12 68 7 -4 6 2 -2 17 -12 23
-11 23 6 9 10 -8 16 -10 12 -3 -4 6 -3 14 3 18 6 4 8 10 6 14 -3 4 14 8 37 10
23 1 54 3 69 4 14 1 30 6 35 11 5 6 2 6 -7 1 -8 -5 -12 -4 -7 1 4 4 19 9 33
10 19 1 24 -3 19 -15 -4 -14 -3 -13 8 1 9 12 31 18 71 19 31 1 59 6 62 10 2 4
-8 6 -23 3 -15 -3 -24 -2 -20 2 4 4 33 8 65 10 68 2 85 6 94 19 5 6 8 5 8 -2
0 -7 4 -13 10 -13 5 0 7 8 3 18 -5 14 -4 15 8 4 7 -7 14 -25 15 -40 1 -15 3
-31 3 -35 1 -5 4 -6 9 -3 4 2 8 -22 8 -55 0 -32 -3 -53 -8 -46 -4 7 -6 3 -5
-10 0 -12 5 -19 9 -17 4 3 8 -3 9 -13 4 -84 3 -120 -5 -115 -5 3 -6 -1 -1 -8
5 -7 9 -80 10 -162 1 -81 5 -151 10 -156 5 -4 5 0 0 8 -5 8 -4 12 0 7 15 -13
15 -41 0 -79 -11 -27 -11 -39 -3 -44 7 -4 8 -3 4 4 -4 7 -2 12 4 12 7 0 9 -7
6 -15 -3 -8 -9 -23 -12 -32 -5 -15 -4 -15 4 -3 10 13 12 -43 14 -322 0 -25 4
-36 12 -31 6 3 6 0 -1 -8 -15 -15 -17 -33 -4 -25 10 7 9 -20 -2 -30 -11 -11
-8 -36 3 -29 12 7 12 6 14 -87 1 -55 -2 -76 -14 -86 -13 -11 -13 -11 2 -6 18
6 19 -10 4 -35 -6 -10 -5 -12 3 -7 14 9 11 -30 -3 -53 -6 -10 -5 -12 2 -7 9 5
12 -15 12 -73 0 -65 3 -81 15 -81 8 0 15 -7 15 -15 0 -12 13 -15 60 -15 33 0
60 4 60 10 0 6 5 10 11 10 5 0 7 -6 4 -12 -4 -7 1 -4 10 7 9 11 18 19 20 18 3
-2 13 -3 23 -3 13 0 14 2 3 9 -9 6 -10 10 -2 12 6 2 12 28 12 59 1 30 6 61 13
69 8 11 8 13 -1 7 -9 -5 -13 1 -13 19 0 18 4 24 13 19 10 -6 10 -4 0 7 -9 9
-13 53 -13 142 0 100 -3 127 -12 121 -8 -5 -7 0 2 11 14 17 13 18 -2 12 -12
-4 -15 -2 -11 8 3 8 8 13 12 10 4 -2 8 3 8 11 0 8 -6 13 -12 10 -6 -2 -12 2
-12 10 0 8 6 13 12 10 6 -2 12 2 12 10 0 8 -5 13 -12 11 -18 -7 -13 87 5 95
12 5 12 7 -2 7 -15 1 -17 13 -18 84 -1 240 -5 298 -20 307 -13 8 -12 10 3 10
9 0 17 5 17 11 0 5 -4 8 -9 4 -5 -3 -13 0 -17 6 -3 6 0 15 7 20 12 7 11 9 -1
9 -12 0 -12 2 -1 9 10 6 10 10 1 16 -8 5 -6 13 7 28 13 15 13 18 2 9 -14 -11
-16 -4 -18 66 -4 193 -6 217 -19 214 -8 -1 -11 2 -7 8 3 6 10 8 15 5 5 -3 9
13 8 35 0 22 -4 37 -8 35 -5 -3 -12 -1 -15 5 -4 6 -3 10 2 9 19 -3 27 2 14 10
-20 13 -21 113 -2 106 11 -4 10 -1 -2 13 -12 13 -13 19 -5 20 7 0 39 3 71 5
32 3 61 8 65 12 4 4 -1 5 -10 3 -9 -1 -18 1 -20 6 -2 6 18 9 45 9 37 -1 47 2
48 15 0 11 2 12 6 5 2 -7 9 -13 14 -13 6 0 7 5 4 10 -3 6 2 10 12 10 15 0 18
7 16 42 -1 24 -2 51 -2 61 -1 20 -40 23 -60 5 -11 -11 -12 -10 -6 1 5 9 3 12
-6 9 -8 -3 -13 -10 -12 -15 2 -10 -6 -12 -57 -15 -16 -1 -30 -7 -30 -14 0 -8
-16 -12 -45 -12 -43 0 -44 0 -41 29 2 17 -1 29 -8 29 -8 0 -12 17 -11 48 0 26
-2 68 -5 95 -4 26 -4 50 -1 52 9 9 10 35 1 35 -4 0 -6 10 -2 22 5 21 6 21 13
2 7 -17 8 -17 8 -1 1 10 -5 20 -13 23 -15 6 -16 21 -3 41 4 6 3 15 -3 18 -8 5
-8 11 -1 19 6 7 8 16 4 20 -4 4 -8 177 -10 384 -3 409 -3 403 -15 396 -7 -5
-12 49 -5 61 1 2 -6 10 -16 17 -9 7 -18 28 -20 45 -1 19 -8 33 -14 33 -7 0
-13 7 -13 15 0 8 -4 15 -10 15 -5 0 -19 9 -30 20 -12 12 -25 18 -30 15 -6 -4
-12 0 -15 7 -7 18 -87 17 -108 -1 -9 -7 -15 -17 -12 -21 3 -5 0 -12 -6 -16 -7
-4 -9 -3 -5 4 3 6 2 14 -4 17 -6 4 -10 3 -9 -2 5 -27 -3 -53 -16 -53 -10 0
-15 -10 -15 -27 0 -20 -3 -24 -9 -14 -11 16 -19 3 -16 -26 1 -13 -3 -19 -8
-16 -6 4 -8 -1 -4 -11 4 -10 3 -15 -3 -11 -9 6 -14 -8 -11 -27 0 -5 -3 -8 -9
-8 -5 0 -6 -7 -3 -17 4 -11 3 -14 -5 -9 -8 5 -12 0 -13 -13 -1 -12 -3 -25 -4
-31 -1 -5 -3 -16 -4 -22 -1 -9 -4 -8 -11 2 -8 13 -10 12 -10 -2 0 -10 6 -18
13 -18 7 0 8 -3 2 -8 -16 -12 -41 -47 -28 -38 9 5 11 2 7 -8 -3 -9 -10 -13
-15 -10 -5 3 -10 -11 -10 -30 -1 -20 -3 -40 -4 -46 -1 -5 -3 -13 -4 -17 -1 -5
-6 -1 -11 7 -7 11 -10 0 -10 -38 0 -39 -4 -54 -16 -59 -13 -5 -13 -7 -2 -14
10 -7 10 -9 1 -9 -7 0 -13 -11 -13 -25 0 -14 -5 -24 -11 -22 -7 1 -13 -19 -15
-52 -3 -35 -10 -59 -22 -68 -16 -14 -16 -14 3 -9 19 6 19 5 2 -8 -10 -8 -15
-20 -11 -30 3 -9 1 -16 -5 -16 -6 0 -8 -7 -4 -17 5 -12 3 -14 -8 -8 -11 7 -11
5 1 -10 9 -11 10 -16 3 -11 -9 5 -13 0 -14 -16 -1 -13 -3 -30 -4 -38 -1 -8 -3
-21 -4 -28 0 -7 -5 -11 -9 -8 -4 2 -9 -5 -10 -17 -4 -57 -9 -72 -22 -69 -11 3
-11 0 0 -12 8 -11 9 -16 1 -16 -6 0 -11 -17 -11 -40 0 -26 -6 -43 -17 -50 -14
-9 -14 -10 -2 -7 9 3 16 -1 16 -9 0 -8 -6 -13 -12 -10 -8 3 -12 -10 -13 -36
-2 -46 -9 -61 -24 -52 -7 4 -8 2 -4 -5 4 -6 11 -9 15 -7 3 3 7 -4 7 -14 0 -14
-4 -16 -13 -9 -9 8 -12 6 -12 -8 -1 -69 -4 -106 -8 -95 -9 23 -18 12 -19 -23
-3 -73 -4 -76 -16 -69 -8 5 -7 0 2 -11 8 -10 10 -16 3 -12 -10 6 -30 -27 -26
-43 1 -3 -8 -7 -19 -7 -20 -2 -20 -1 -2 12 18 13 18 14 -3 8 -13 -3 -23 -9
-23 -14 0 -5 -11 -9 -24 -9 -14 0 -28 -4 -31 -10 -3 -6 1 -7 12 -4 17 5 17 5
0 -6 -19 -13 -41 -4 -31 12 4 7 2 8 -5 4 -6 -4 -9 -12 -6 -17 6 -8 -16 -12
-67 -12 -10 0 -18 -4 -18 -8 0 -5 5 -9 12 -9 6 0 8 -3 5 -6 -4 -4 -14 -1 -24
7 -11 9 -14 10 -9 2 5 -9 0 -13 -15 -13 -12 0 -28 -8 -35 -17 -13 -17 -14 -17
-8 2 5 18 4 18 -8 4 -15 -18 -18 -19 -52 -19 -14 0 -31 -7 -40 -15 -8 -8 -26
-15 -39 -15 -14 0 -28 -7 -31 -16 -3 -8 -14 -14 -23 -13 -10 0 -29 1 -43 0
-20 -1 -22 -3 -10 -11 13 -9 13 -10 0 -10 -8 0 -25 -3 -37 -6 -18 -5 -23 -2
-23 12 0 14 -2 16 -9 6 -7 -11 -9 -11 -14 2 -4 9 -2 16 4 16 6 0 7 5 3 11 -3
6 -7 44 -8 84 -1 41 -6 78 -10 82 -5 5 -6 2 -1 -6 6 -10 4 -12 -5 -6 -11 7
-11 10 2 19 15 9 15 11 0 24 -11 9 -12 11 -2 6 13 -7 13 -5 1 9 -11 14 -11 17
0 17 11 0 12 2 1 9 -9 5 -14 39 -17 101 -2 51 -9 96 -14 100 -6 3 -12 41 -13
86 0 43 -6 85 -12 93 -6 8 -11 28 -12 45 -4 118 -10 162 -23 172 -11 9 -12 12
-1 19 9 6 11 4 5 -5 -6 -9 -4 -11 5 -5 11 7 10 10 -1 19 -16 12 -18 25 -5 45
6 10 5 12 -2 7 -9 -5 -12 15 -12 72 0 55 -4 81 -12 85 -10 3 -13 41 -13 140 0
92 -3 132 -10 127 -7 -6 -11 -2 -11 10 0 10 3 17 6 15 3 -2 6 14 5 35 0 24 -4
35 -10 30 -7 -5 -11 44 -12 143 -1 84 -2 186 -2 227 -1 52 -4 70 -11 60 -6 -9
-10 -10 -10 -3 0 6 5 15 10 18 6 3 10 14 9 23 0 14 -2 13 -9 -3 -8 -19 -9 -19
-9 2 -1 12 5 24 12 26 7 3 4 6 -6 6 -10 1 -15 6 -12 11 3 6 -2 13 -12 17 -10
4 -21 11 -25 17 -8 12 -110 16 -148 5z m1580 -429 c-12 -7 -10 -11 10 -19 14
-5 19 -10 13 -10 -7 -1 -13 -6 -13 -12 0 -5 4 -8 9 -5 12 8 16 -43 16 -209 0
-113 3 -142 15 -153 12 -10 13 -12 1 -10 -13 3 -15 -61 -15 -442 l-1 -445 -25
-6 c-14 -3 -24 -11 -22 -18 1 -7 -2 -10 -8 -6 -6 3 -8 11 -5 16 4 5 -1 9 -10
9 -9 0 -14 -4 -11 -9 8 -12 -9 -17 -64 -20 -27 -2 -49 -9 -57 -19 -11 -15 -12
-15 -8 -1 4 10 0 16 -9 16 -8 0 -13 -4 -10 -9 8 -13 -11 -9 -25 5 -10 10 -11
9 -6 -4 5 -12 -2 -15 -36 -14 -23 1 -48 -5 -55 -13 -8 -8 -14 -9 -14 -3 0 6
-5 11 -11 11 -5 0 -7 -5 -3 -12 4 -7 3 -8 -4 -4 -7 4 -12 2 -12 -4 0 -7 -7 -7
-22 1 -13 7 -25 11 -28 10 -2 -1 -6 3 -8 11 -2 9 0 8 7 -2 6 -8 11 -12 12 -7
3 18 7 49 8 78 0 17 5 28 11 24 6 -3 10 4 11 17 1 26 6 79 8 91 0 5 5 6 9 3 8
-5 13 33 16 107 1 25 5 36 14 32 8 -3 12 10 13 43 1 26 0 53 -1 61 -1 8 4 11
12 8 9 -3 15 4 16 20 1 15 -2 22 -9 18 -11 -7 -8 -1 20 54 7 12 8 20 2 17 -6
-4 -9 7 -9 26 1 18 3 27 5 21 10 -29 23 -10 23 32 0 29 4 45 13 45 7 0 8 3 2
8 -5 4 -11 13 -13 21 -3 12 0 12 12 1 19 -15 21 0 4 19 -11 11 -10 12 0 6 10
-5 13 1 12 26 -1 19 -1 39 0 44 1 6 2 14 1 19 -1 5 4 5 11 -1 10 -9 14 -2 16
35 1 25 8 50 15 54 9 6 8 8 -3 9 -10 0 -8 3 5 9 11 5 14 9 7 9 -8 1 -10 6 -5
14 4 6 8 22 8 35 0 13 7 27 14 31 7 5 14 27 15 50 1 29 5 41 16 42 10 0 11 2
3 6 -17 6 -17 24 -1 21 8 -2 12 8 11 30 -1 18 2 30 7 27 5 -3 12 7 16 22 4 15
12 31 17 35 6 3 12 19 14 35 2 15 10 33 17 38 7 6 15 18 19 28 3 9 12 17 19
17 9 0 9 -3 -2 -10z m-65 -90 c3 -5 1 -10 -4 -10 -6 0 -11 5 -11 10 0 6 2 10
4 10 3 0 8 -4 11 -10z m-1288 -65 c0 -8 -4 -12 -9 -9 -5 3 -6 10 -3 15 9 13
12 11 12 -6z m1038 -334 c3 -5 2 -12 -3 -15 -5 -3 -9 1 -9 9 0 17 3 19 12 6z
m-945 -475 c0 -3 -4 -8 -10 -11 -5 -3 -10 -1 -10 4 0 6 5 11 10 11 6 0 10 -2
10 -4z m23 -171 c4 -8 2 -17 -3 -20 -6 -4 -10 3 -10 14 0 25 6 27 13 6z m884
-7 c-3 -8 -6 -5 -6 6 -1 11 2 17 5 13 3 -3 4 -12 1 -19z m-281 -457 c-9 -12
-8 -13 4 -7 9 4 8 1 -2 -7 -10 -8 -18 -26 -18 -40 0 -13 -6 -27 -13 -30 -7 -2
-14 -20 -15 -38 -2 -18 -9 -44 -17 -56 -8 -12 -15 -30 -15 -39 0 -9 -6 -14
-13 -11 -8 3 -14 -1 -14 -9 0 -7 5 -11 10 -7 5 3 1 -6 -8 -20 -9 -15 -14 -31
-10 -37 3 -5 -1 -10 -10 -10 -11 0 -15 -5 -11 -15 3 -10 -1 -15 -12 -16 -10 0
-12 -3 -4 -6 6 -2 12 -9 12 -14 0 -6 -4 -7 -10 -4 -5 3 -10 -3 -10 -14 0 -12
-4 -21 -9 -21 -6 0 -8 -9 -6 -20 2 -11 0 -18 -4 -15 -11 6 -23 -23 -15 -36 3
-5 -2 -9 -11 -9 -9 0 -13 -5 -10 -10 3 -6 -1 -13 -9 -16 -9 -3 -16 -10 -16
-16 0 -5 6 -6 13 -3 6 4 4 0 -5 -8 -10 -8 -18 -19 -18 -26 0 -6 -6 -11 -12
-11 -9 0 -8 -4 2 -10 13 -9 7 -14 -12 -11 -7 1 -13 -40 -9 -62 1 -5 -3 -6 -9
-2 -6 3 -8 10 -5 15 3 5 2 11 -3 14 -4 2 -9 -7 -10 -22 -1 -14 -7 -29 -13 -33
-7 -4 -8 -12 -4 -19 5 -9 4 -11 -3 -6 -7 4 -12 1 -12 -9 0 -9 -12 -27 -26 -40
-17 -16 -22 -25 -13 -26 10 0 11 -2 2 -6 -7 -2 -13 -11 -13 -19 0 -8 -7 -14
-16 -14 -10 0 -14 -6 -10 -15 3 -8 1 -15 -5 -15 -6 0 -8 -4 -5 -9 3 -5 0 -11
-8 -14 -13 -5 -15 13 -20 160 0 28 -5 55 -9 59 -4 5 -5 1 -1 -9 3 -9 2 -17 -3
-17 -5 0 -10 11 -11 26 -1 14 2 23 7 20 10 -7 9 13 -1 30 -4 6 -8 68 -10 138
-1 69 -6 126 -11 126 -4 0 -6 -9 -2 -19 3 -11 2 -22 -2 -24 -4 -3 -8 43 -8
101 0 59 -3 117 -7 130 -6 17 -5 21 4 16 7 -5 9 -2 6 8 -5 11 2 16 25 17 54 3
56 4 54 15 -1 6 13 12 31 14 22 2 32 8 32 20 0 15 2 15 10 2 6 -10 10 -11 10
-2 0 6 7 12 15 12 8 0 15 6 15 13 0 8 4 7 10 -3 8 -11 12 -12 18 -3 4 7 26 15
47 19 22 3 43 10 46 16 3 5 28 10 56 11 36 1 49 6 46 15 -5 12 4 14 55 15 12
1 22 6 23 11 0 6 4 2 8 -9 5 -12 4 -26 -3 -34z m911 -3 c2 -17 0 -19 -7 -8 -5
8 -6 18 -4 22 8 12 10 10 11 -14z m-1697 -98 c0 -5 -5 -10 -11 -10 -5 0 -7 5
-4 10 3 6 8 10 11 10 2 0 4 -4 4 -10z m57 -160 c3 -8 5 -19 3 -25 -6 -25 -6
-96 1 -101 4 -2 6 4 4 16 -2 11 -1 21 3 24 4 2 7 -31 8 -75 1 -51 -3 -79 -10
-79 -7 0 -6 -3 1 -8 9 -5 14 -41 15 -105 3 -81 5 -94 16 -80 6 9 12 12 12 6 0
-7 -6 -18 -13 -25 -12 -13 -17 -111 -5 -123 3 -3 5 10 3 30 -1 19 1 33 4 30
12 -13 11 -99 -1 -107 -9 -5 -9 -8 -1 -8 8 0 12 -39 12 -131 1 -103 -1 -129
-11 -123 -8 5 -7 1 2 -11 14 -17 13 -18 -5 -12 -20 7 -20 7 -1 -8 18 -13 15
-20 -6 -16 -5 0 -8 -8 -8 -19 0 -13 -5 -18 -15 -13 -9 3 -15 2 -14 -3 4 -22
-2 -34 -17 -34 -8 0 -12 -4 -9 -10 3 -5 2 -10 -4 -10 -13 0 -81 -67 -81 -80 0
-6 -3 -9 -7 -9 -19 3 -47 -3 -35 -8 6 -2 12 -9 12 -14 0 -4 -6 -6 -13 -3 -7 2
-21 -2 -32 -11 -20 -15 -20 -15 0 -9 16 5 17 4 5 -5 -8 -6 -23 -11 -33 -11
-10 0 -15 -4 -12 -10 3 -5 -1 -10 -9 -10 -8 0 -19 -7 -24 -16 -7 -13 -24 -20
-55 -23 -5 -1 -5 -5 -2 -11 3 -5 0 -10 -8 -10 -8 0 -17 -6 -20 -13 -2 -7 -19
-14 -37 -15 -18 -1 -40 -7 -49 -13 -13 -8 -11 -9 9 -4 20 5 22 4 9 -4 -9 -6
-37 -12 -63 -12 -39 -2 -43 -4 -28 -15 13 -10 14 -12 2 -11 -8 2 -21 6 -27 10
-8 5 -13 4 -13 -2 0 -6 -3 -10 -7 -10 -35 6 -73 -3 -73 -16 0 -8 -8 -15 -17
-15 -12 0 -14 -3 -6 -8 6 -4 13 -19 15 -34 2 -15 7 -30 11 -34 6 -7 125 -7
158 -1 10 2 24 9 33 16 9 7 25 11 36 8 14 -4 20 0 20 11 0 15 2 15 10 2 9 -14
14 -7 11 13 -1 5 4 7 11 4 7 -2 20 2 30 10 14 13 33 20 61 22 5 1 5 6 2 11 -3
6 3 10 15 10 11 0 23 7 26 15 4 8 15 15 25 15 13 0 17 5 12 18 -6 15 -5 16 12
2 11 -9 16 -10 11 -2 -5 8 0 12 13 12 12 0 21 7 21 15 0 8 7 15 15 15 8 0 15
7 15 15 0 8 7 15 15 15 8 0 15 5 15 11 0 5 5 7 12 3 6 -4 8 -3 4 4 -3 6 7 18
23 28 17 10 27 22 24 27 -3 6 -1 7 5 3 11 -7 8 -44 -4 -55 -4 -3 -4 3 0 14 4
11 4 16 -1 12 -4 -5 -9 -29 -10 -55 -2 -26 -9 -52 -17 -57 -7 -6 -11 -20 -10
-33 2 -12 -1 -22 -7 -22 -5 0 -7 -4 -4 -10 3 -5 2 -10 -3 -10 -6 0 -13 -7 -16
-16 -4 -10 -2 -13 7 -8 9 6 9 5 0 -8 -7 -8 -10 -18 -6 -21 3 -4 -1 -7 -10 -7
-9 0 -17 -6 -17 -14 0 -8 -7 -16 -15 -20 -8 -3 -15 -17 -15 -31 0 -16 -6 -25
-15 -25 -8 0 -15 -7 -15 -16 0 -10 -6 -14 -15 -10 -10 4 -15 -1 -15 -15 0 -11
-5 -17 -10 -14 -6 3 -13 -1 -16 -9 -3 -9 -13 -16 -21 -16 -8 0 -12 -4 -8 -9 3
-5 1 -12 -5 -16 -5 -3 -10 -1 -10 6 0 7 -8 3 -17 -8 -17 -19 -60 -39 -75 -35
-5 1 -8 -6 -9 -15 0 -11 -3 -13 -6 -5 -2 6 -9 12 -14 12 -6 0 -7 -4 -4 -10 4
-6 -10 -10 -34 -10 -34 0 -39 -3 -35 -17 5 -15 4 -15 -4 -4 -14 19 -42 23 -42
6 0 -11 -28 -13 -130 -13 -98 1 -130 4 -130 13 0 7 -10 13 -22 12 -76 -1 -126
7 -121 20 3 9 0 14 -8 13 -32 -5 -49 1 -49 18 0 13 -2 14 -9 3 -6 -9 -11 -10
-15 -2 -4 6 -17 11 -29 11 -18 0 -19 2 -7 10 12 8 11 10 -7 10 -13 0 -23 5
-23 10 0 6 -11 15 -23 21 -13 6 -28 20 -33 32 -6 12 -9 16 -7 9 1 -7 -2 -10
-7 -7 -6 3 -10 15 -10 25 0 10 -7 23 -16 28 -9 5 -16 21 -16 36 0 24 -2 25
-14 9 -10 -14 -12 -15 -12 -3 3 54 -3 80 -19 80 -15 0 -14 2 3 15 14 11 15 14
2 9 -15 -5 -16 7 -15 125 1 116 7 155 19 120 2 -7 5 3 6 22 2 47 7 67 17 76 4
4 5 2 0 -6 -5 -9 -4 -12 3 -7 7 4 12 21 12 38 0 24 3 28 13 20 9 -8 13 -7 14
6 4 47 8 62 21 62 7 0 11 4 7 9 -3 5 -1 12 4 16 6 3 7 13 4 23 -5 14 -3 13 10
-3 14 -19 15 -18 13 5 -1 16 4 24 12 22 8 -1 11 2 7 8 -3 5 -2 10 4 10 6 0 8
7 4 15 -3 10 -1 15 8 13 7 -2 15 6 17 17 2 11 9 25 14 30 8 7 9 6 4 -2 -3 -6
-3 -14 2 -17 4 -2 9 5 9 16 1 12 16 33 33 48 16 14 30 31 30 38 0 7 4 11 9 7
5 -3 12 4 16 15 4 11 10 18 15 15 8 -5 25 23 22 37 -1 4 6 4 15 1 11 -4 14 -3
9 5 -4 7 -1 12 8 12 9 0 16 5 16 10 0 13 37 50 50 50 6 0 10 7 10 15 0 8 7 15
15 15 8 0 15 6 15 14 0 9 7 13 19 11 12 -2 18 2 17 13 0 9 5 17 12 18 6 1 18
2 25 3 8 1 7 4 -3 11 -8 5 -13 10 -10 11 3 0 14 2 24 4 11 2 23 11 28 20 5 8
14 12 20 9 8 -5 9 -1 5 11 -6 14 -3 16 13 12 15 -4 20 0 20 14 0 17 22 25 53
20 5 -1 6 3 2 9 -3 6 -11 7 -17 4 -7 -4 -8 -2 -4 5 4 6 11 9 16 6 5 -3 11 -1
15 5 4 6 11 7 17 4 7 -4 8 -2 4 4 -4 8 3 16 19 22 16 6 23 14 19 22 -5 8 -2 9
9 5 12 -4 17 -1 18 11 0 11 2 12 6 4 3 -9 12 -5 28 13 13 14 30 25 37 25 7 0
20 5 28 11 12 9 11 10 -5 5 -19 -6 -19 -5 -2 8 11 8 25 12 33 9 9 -3 14 0 12
7 -2 7 6 14 17 16 11 1 25 10 31 18 6 9 23 17 37 18 14 1 23 6 21 10 -3 5 -11
5 -17 2 -7 -4 -8 -3 -4 2 9 9 14 11 47 13 13 1 17 6 14 16 -4 10 -2 13 8 10 8
-3 25 3 37 14 13 12 27 18 32 16 4 -3 11 0 16 7 5 9 8 7 11 -7 2 -11 6 -27 9
-35z m243 -150 c0 -5 -2 -10 -4 -10 -3 0 -8 5 -11 10 -3 6 -1 10 4 10 6 0 11
-4 11 -10z m1421 -93 c-10 -9 -11 -8 -5 6 3 10 9 15 12 12 3 -3 0 -11 -7 -18z
m9 -47 c0 -5 -2 -10 -4 -10 -3 0 -8 5 -11 10 -3 6 -1 10 4 10 6 0 11 -4 11
-10z m-1400 -180 c0 -5 -2 -10 -4 -10 -3 0 -8 5 -11 10 -3 6 -1 10 4 10 6 0
11 -4 11 -10z m-220 -20 c0 -5 -5 -10 -11 -10 -5 0 -7 5 -4 10 3 6 8 10 11 10
2 0 4 -4 4 -10z m-1379 -573 c-10 -9 -11 -8 -5 6 3 10 9 15 12 12 3 -3 0 -11
-7 -18z m513 -735 c3 -5 -1 -9 -9 -9 -8 0 -12 4 -9 9 3 4 7 8 9 8 2 0 6 -4 9
-8z m411 -2 c-3 -5 -12 -10 -18 -10 -7 0 -6 4 3 10 19 12 23 12 15 0z"/>
<path d="M2960 2800 c0 -5 5 -10 11 -10 5 0 7 5 4 10 -3 6 -8 10 -11 10 -2 0
-4 -4 -4 -10z"/>
<path d="M1976 2153 c-6 -14 -5 -15 5 -6 7 7 10 15 7 18 -3 3 -9 -2 -12 -12z"/>
<path d="M3036 3787 c3 -10 9 -15 12 -12 3 3 0 11 -7 18 -10 9 -11 8 -5 -6z"/>
<path d="M2019 3748 c-5 -17 -4 -48 3 -48 4 0 7 11 6 25 -2 21 -6 31 -9 23z"/>
<path d="M1800 3441 c0 -6 4 -12 8 -15 5 -3 9 1 9 9 0 8 -4 15 -9 15 -4 0 -8
-4 -8 -9z"/>
<path d="M3594 3041 c0 -16 4 -27 8 -25 4 2 5 14 3 26 -7 32 -13 32 -11 -1z"/>
<path d="M1865 3011 c-3 -5 -2 -12 3 -15 5 -3 9 1 9 9 0 17 -3 19 -12 6z"/>
<path d="M3873 2885 c-3 -9 -3 -18 -1 -21 3 -3 8 4 11 16 6 23 -1 27 -10 5z"/>
<path d="M1890 2810 c0 -5 5 -10 11 -10 5 0 7 5 4 10 -3 6 -8 10 -11 10 -2 0
-4 -4 -4 -10z"/>
<path d="M3405 2060 c3 -5 8 -10 11 -10 2 0 4 5 4 10 0 6 -5 10 -11 10 -5 0
-7 -4 -4 -10z"/>
<path d="M3439 1478 c-4 -9 -4 -136 0 -132 6 5 9 134 4 134 -2 0 -4 -1 -4 -2z"/>
</g>
</svg>
